<svg width="240" height="278" xmlns="http://www.w3.org/2000/svg" xmlns:xlink="http://www.w3.org/1999/xlink" overflow="hidden"><defs><clipPath id="clip0"><rect x="0" y="0" width="240" height="278"/></clipPath><linearGradient x1="66.0001" y1="108.5" x2="66.0001" y2="138.5" gradientUnits="userSpaceOnUse" spreadMethod="reflect" id="fill1"><stop offset="0" stop-color="#81B861"/><stop offset="0.5" stop-color="#6FB242"/><stop offset="1" stop-color="#61A235"/></linearGradient><linearGradient x1="159.5" y1="138.5" x2="159.5" y2="175.5" gradientUnits="userSpaceOnUse" spreadMethod="reflect" id="fill2"><stop offset="0" stop-color="#81B861"/><stop offset="0.5" stop-color="#6FB242"/><stop offset="1" stop-color="#61A235"/></linearGradient><linearGradient x1="79.5001" y1="139.5" x2="79.5001" y2="165.5" gradientUnits="userSpaceOnUse" spreadMethod="reflect" id="fill3"><stop offset="0" stop-color="#81B861"/><stop offset="0.5" stop-color="#6FB242"/><stop offset="1" stop-color="#61A235"/></linearGradient></defs><g clip-path="url(#clip0)"><rect x="0" y="0" width="240" height="278" fill="#FFFFFF"/><path d="M120 6 233 62.5 233 215.5 120 272 7 215.5 7 62.5Z" stroke="#404040" stroke-width="10.3333" stroke-linejoin="round" stroke-miterlimit="10" fill="#E2F0D9" fill-rule="evenodd"/><path d="M46.3729 54.5341 77.0261 44.4368 79.6806 52.4953 69.3961 55.883 77.4915 80.459 67.4074 83.7808 59.3119 59.2048 49.0274 62.5926Z" fill="#4472C4" fill-rule="evenodd"/><text fill="#000000" fill-opacity="0" font-family="Arial,Arial_MSFontService,sans-serif" font-size="39.344" x="46.3729" y="78.8628">T</text><path d="M118.837 39.5431C123.228 39.4853 126.586 40.2575 128.912 41.8599 131.238 43.4622 132.643 46.0415 133.127 49.598L123.128 50.3157C122.842 48.7724 122.269 47.6549 121.408 46.963 120.547 46.2712 119.367 45.9351 117.867 45.9549 116.633 45.9712 115.707 46.2451 115.089 46.7767 114.471 47.3084 114.166 47.9491 114.176 48.6991 114.184 49.2459 114.448 49.7346 114.969 50.1653 115.475 50.6118 116.668 51.018 118.548 51.3839 123.201 52.3227 126.539 53.2905 128.56 54.2874 130.581 55.2843 132.058 56.5345 132.992 58.038 133.926 59.5414 134.406 61.2306 134.43 63.1054 134.459 65.3083 133.877 67.3474 132.683 69.2227 131.489 71.098 129.804 72.5304 127.629 73.5201 125.455 74.5098 122.704 75.0265 119.376 75.0704 113.532 75.1473 109.471 74.0757 107.192 71.8556 104.912 69.6354 103.601 66.7931 103.259 63.3285L113.351 62.5627C113.591 64.2003 114.053 65.4443 114.736 66.2948 115.848 67.6709 117.42 68.3456 119.451 68.3188 120.966 68.2988 122.13 67.928 122.94 67.2063 123.751 66.4846 124.151 65.6551 124.138 64.7177 124.126 63.8271 123.725 63.0355 122.935 62.3427 122.145 61.6499 120.323 61.0098 117.472 60.4223 112.802 59.4369 109.464 58.0901 107.457 56.382 105.434 54.6741 104.405 52.4765 104.37 49.7893 104.346 48.0238 104.836 46.3492 105.839 44.7656 106.841 43.1819 108.364 41.9274 110.407 41.002 112.449 40.0765 115.26 39.5903 118.837 39.5431Z" fill="#4472C4" fill-rule="evenodd"/><text fill="#000000" fill-opacity="0" font-family="Arial,Arial_MSFontService,sans-serif" font-size="35.5341" x="103.259" y="70.6325">S</text><path d="M170.589 53.7113 168.392 61.0535 170.884 61.7995C172.845 62.3864 174.324 62.458 175.321 62.0144 176.318 61.5707 176.976 60.8175 177.294 59.7547 177.603 58.7218 177.521 57.7431 177.048 56.8185 176.574 55.8939 175.387 55.1471 173.486 54.5782ZM162.375 43.9624 179.283 49.0228C182.965 50.1249 185.461 51.826 186.771 54.1262 188.08 56.4264 188.251 59.1931 187.283 62.4264 186.289 65.7495 184.512 68.0476 181.954 69.3206 179.396 70.5936 176.066 70.6163 171.964 69.3888L166.396 67.7222 162.74 79.9368 152.524 76.8791Z" fill="#4472C4" fill-rule="evenodd"/><text fill="#000000" fill-opacity="0" font-family="Arial,Arial_MSFontService,sans-serif" font-size="35.9744" x="152.524" y="75.44">P</text><text fill="#767171" font-family="Arial Black,Arial Black_MSFontService,sans-serif" font-weight="900" font-size="19" transform="translate(85.5831 245)">with <tspan fill="#4472C4" font-family="Calibri,Calibri_MSFontService,sans-serif" font-weight="700" font-size="32" x="50.8333" y="0">R</tspan><tspan font-size="19" x="-11.9202" y="-47">Discrete </tspan><tspan font-size="19" x="-33.3602" y="-24">Optimization</tspan></text><path d="M174.886 88.5001 159.999 98.9527 145.111 88.5001 136.5 94.5463 151.387 104.999 136.5 115.452 145.111 121.5 159.999 111.045 174.886 121.5 183.5 115.452 168.61 104.999 183.5 94.5463 174.886 88.5001Z" stroke="#AE5A21" stroke-width="1.33333" stroke-miterlimit="8" fill="#ED7D31" fill-rule="evenodd"/><path d="M104.77 114.55C105.833 113.327 107.084 112.192 108.5 111.166L101.876 106.5C99.9811 107.871 98.3037 109.385 96.874 111.016 96.3531 111.602 95.8936 112.215 95.5001 112.849L104.049 115.5C104.255 115.171 104.496 114.853 104.77 114.55Z" stroke="#AE5A21" stroke-width="1.33333" stroke-miterlimit="8" fill="#ED7D31" fill-rule="evenodd"/><path d="M121.5 106.117 120.243 100.5C116.862 100.803 113.575 101.442 110.5 102.392L114.376 107.5C116.625 106.806 119.028 106.339 121.5 106.117Z" stroke="#AE5A21" stroke-width="1.33333" stroke-miterlimit="8" fill="#ED7D31" fill-rule="evenodd"/><path d="M96.5001 121.372C98.0263 123.656 100.028 125.727 102.424 127.5L108.5 122.861C106.77 121.594 105.308 120.122 104.167 118.5Z" stroke="#AE5A21" stroke-width="1.33333" stroke-miterlimit="8" fill="#ED7D31" fill-rule="evenodd"/><path d="M138.5 100.697C135.912 100.101 133.25 99.6995 130.553 99.5001L129.5 106.643C131.498 106.792 133.474 107.079 135.4 107.5Z" stroke="#AE5A21" stroke-width="1.33333" stroke-miterlimit="8" fill="#ED7D31" fill-rule="evenodd"/><path d="M124.218 145.5 132.5 143.319C131.284 141.268 129.725 139.316 127.851 137.5L120.5 140.852C121.998 142.302 123.246 143.862 124.218 145.5Z" stroke="#AE5A21" stroke-width="1.33333" stroke-miterlimit="8" fill="#ED7D31" fill-rule="evenodd"/><path d="M48.5001 174.652C48.6558 174.67 52.4402 175.067 58.4396 175.5L59.5001 169.297C53.8119 168.897 50.1605 168.504 50.1247 168.5Z" stroke="#AE5A21" stroke-width="1.33333" stroke-miterlimit="8" fill="#ED7D31" fill-rule="evenodd"/><path d="M67.5001 176.179C70.4752 176.337 73.436 176.446 76.2936 176.5L76.5001 169.804C73.7688 169.754 70.94 169.652 68.091 169.5Z" stroke="#AE5A21" stroke-width="1.33333" stroke-miterlimit="8" fill="#ED7D31" fill-rule="evenodd"/><path d="M102.5 168.856 104.216 174.5C107.364 174.115 110.466 173.591 113.5 172.931L110.562 167.5C107.928 168.072 105.234 168.525 102.5 168.856Z" stroke="#AE5A21" stroke-width="1.33333" stroke-miterlimit="8" fill="#ED7D31" fill-rule="evenodd"/><path d="M118.5 165.008 123.057 170.5C125.945 169.147 128.47 167.391 130.5 165.326L123.593 161.5C122.203 162.903 120.474 164.094 118.5 165.008Z" stroke="#AE5A21" stroke-width="1.33333" stroke-miterlimit="8" fill="#ED7D31" fill-rule="evenodd"/><path d="M126.57 151.211C126.708 152.057 126.777 152.908 126.776 153.76 126.776 154.142 126.776 154.527 126.738 154.918 126.702 155.431 126.623 155.941 126.5 156.447L135.096 157.5C135.279 156.747 135.398 155.987 135.451 155.223 135.486 154.728 135.5 154.242 135.5 153.76 135.501 152.671 135.411 151.582 135.233 150.5Z" stroke="#AE5A21" stroke-width="1.33333" stroke-miterlimit="8" fill="#ED7D31" fill-rule="evenodd"/><path d="M115.276 127.5 109.5 132.165C111.378 133.492 113.383 134.933 115.313 136.5L121.5 132.15C119.393 130.434 117.171 128.833 115.276 127.5Z" stroke="#AE5A21" stroke-width="1.33333" stroke-miterlimit="8" fill="#ED7D31" fill-rule="evenodd"/><path d="M85.5001 169.892 85.776 176.5C89.1733 176.43 92.4418 176.28 95.5002 176.077L94.5811 169.5C91.7359 169.694 88.6807 169.826 85.5001 169.892Z" stroke="#AE5A21" stroke-width="1.33333" stroke-miterlimit="8" fill="#ED7D31" fill-rule="evenodd"/><path d="M62.934 138.5 69.0601 138.5 69.0601 133.5 80.5001 133.5 66.0001 108.5 51.5001 133.5 62.934 133.5 62.934 138.5Z" stroke="#70AD47" stroke-width="0.666667" stroke-miterlimit="8" fill="url(#fill1)" fill-rule="evenodd"/><path d="M166.47 158.4 171.412 158.4 159.5 138.5 147.588 158.4 152.527 158.4 144.5 170.216 156.412 170.216 156.412 175.5 162.588 175.5 162.588 170.216 174.5 170.216 166.47 158.4Z" stroke="#70AD47" stroke-width="0.666667" stroke-miterlimit="8" fill="url(#fill2)" fill-rule="evenodd"/><path d="M85.5001 161.167 85.5001 165.5 91.5002 165.5 91.5002 161.167 100.5 161.167 88.5002 139.5 79.5001 155.75 70.5001 139.5 58.5001 161.167 67.5001 161.167 67.5001 165.5 73.5001 165.5 73.5001 161.167 76.5001 161.167 82.5001 161.167 85.5001 161.167Z" stroke="#70AD47" stroke-width="0.666667" stroke-miterlimit="8" fill="url(#fill3)" fill-rule="evenodd"/></g></svg>